<svg xmlns="http://www.w3.org/2000/svg" viewBox="0 0 100 100">
  <title>Instagram</title>
  <path d="M84.927,94H15.073A10.32,10.32,0,0,1,4.6,83.842V16.152A10.318,10.318,0,0,1,15.073,6H84.927A10.318,10.318,0,0,1,95.4,16.152v67.69A10.32,10.32,0,0,1,84.927,94ZM50,33.076A17.2,17.2,0,0,0,32.537,50,17.2,17.2,0,0,0,50,66.924,17.2,17.2,0,0,0,67.463,50,17.2,17.2,0,0,0,50,33.076ZM84.927,19.537a3.442,3.442,0,0,0-3.5-3.385H70.956a3.44,3.44,0,0,0-3.493,3.385V29.693a3.44,3.44,0,0,0,3.493,3.383H81.431a3.442,3.442,0,0,0,3.5-3.383Zm0,23.69H77.021A26.308,26.308,0,0,1,77.938,50C77.938,64.956,65.43,77.076,50,77.076S22.062,64.956,22.062,50a26.308,26.308,0,0,1,.917-6.771H15.073V80.461a3.44,3.44,0,0,0,3.5,3.381H81.431a3.44,3.44,0,0,0,3.5-3.381Z" fill="currentColor"/>
</svg>
