<svg xmlns="http://www.w3.org/2000/svg" viewBox="0 0 100 100">
  <title>Linkedin</title>
  <path d="M87.489,6h-75A6.421,6.421,0,0,0,6,12.346v75.3A6.425,6.425,0,0,0,12.491,94h75A6.437,6.437,0,0,0,94,87.649v-75.3A6.433,6.433,0,0,0,87.489,6ZM32.1,80.986H19.04v-42H32.1ZM25.576,33.253a7.569,7.569,0,1,1,7.563-7.57A7.566,7.566,0,0,1,25.576,33.253ZM80.99,80.986H67.939V60.562c0-4.869-.084-11.134-6.781-11.134-6.793,0-7.83,5.307-7.83,10.787V80.986H40.292v-42H52.8v5.742h.181c1.74-3.3,6-6.783,12.346-6.783,13.217,0,15.66,8.7,15.66,20.005Z" fill="currentColor"/>
</svg>
